<?xml version="1.0" encoding="utf-8"?>
<!-- Generator: Adobe Illustrator 26.2.1, SVG Export Plug-In . SVG Version: 6.00 Build 0)  -->
<svg version="1.1" id="Layer_1" xmlns="http://www.w3.org/2000/svg" xmlns:xlink="http://www.w3.org/1999/xlink" x="0px" y="0px"
	 viewBox="0 0 500 500" style="enable-background:new 0 0 500 500;" xml:space="preserve">
<style type="text/css">
	.st0{fill:#04395E;}
	.st1{fill:#FFFFFF;}
	.st2{fill:#0EB1D2;}
</style>
<g>
	<path class="st0" d="M215.2,349.1L105.1,239.3l-13,56.4l41.2,71.4c5.3,9.1,15,14.7,25.5,14.7h118.2c10.5,0,20.3-5.6,25.5-14.7
		l127.1-218.8L215.2,349.1z"/>
	<path class="st2" d="M92.1,295.7l13-56.4l45.4-45.4l64.5,64.5l101.5-101.5l-13.8-24c-5.3-9.1-15-14.7-25.5-14.7H158.9
		c-10.5,0-20.3,5.6-25.5,14.7L74.3,235.3c-5.3,9.1-5.3,20.4,0,29.5L92.1,295.7z"/>
</g>
</svg>
